<?xml version="1.0" encoding="utf-8"?>
<!-- Generator: Adobe Illustrator 18.0.0, SVG Export Plug-In . SVG Version: 6.00 Build 0)  -->
<!DOCTYPE svg PUBLIC "-//W3C//DTD SVG 1.1//EN" "http://www.w3.org/Graphics/SVG/1.1/DTD/svg11.dtd">
<svg version="1.1" xmlns="http://www.w3.org/2000/svg" xmlns:xlink="http://www.w3.org/1999/xlink" x="0px" y="0px"
	 viewBox="0 0 1484.9 325.5" enable-background="new 0 0 1484.9 325.5" xml:space="preserve">
<g id="full_x5F_logo">
	<g id="text">
		<g>
			<text transform="matrix(1 0 0 1 307.4348 228.6503)"><tspan x="0" y="0" font-family="'Oswald-Bold'" font-size="221.2851">SLIDE</tspan><tspan x="487.7" y="0" font-family="'Oswald-Light'" font-size="232">WINDER</tspan></text>
		</g>
		<text transform="matrix(1 0 0 1 316.4831 309.021)" font-family="'Roboto-Light'" font-size="72" letter-spacing="4">instant pick-and-mix slide decks</text>
	</g>
	<g id="hex">
		<g id="colours">
			<polygon fill="#FFC12A" points="600.8,133.9 596.3,126 600.8,133.9 			"/>
			<polygon fill="#E3F178" points="300.2,148.4 299.9,147.2 299.2,147.9 			"/>
			<polygon fill="#E3F178" points="303.9,116.1 290.6,139.2 304,116.3 			"/>
			<polygon fill="#80F4DF" points="600.9,134.1 601.7,132.8 599.6,131.9 600.8,133.9 			"/>
		</g>
		<g id="outerhex">
		</g>
		<g id="innerhex">
			<g>
				<polygon fill="#80F4DF" points="284.1,84.5 198.2,94.4 151.9,312 283.6,236.4 				"/>
				<polygon fill="#6C0530" points="286,237.7 196.5,187.9 19.7,237.9 151.1,313.9 				"/>
				<polygon fill="#921516" points="152,315.6 153.7,212.7 23.7,82.5 20.1,234.2 				"/>
				<polygon fill="#D64E01" points="22.7,235.4 99.6,194.5 152.8,9.8 21.1,85.2 				"/>
				<polygon fill="#E3F178" points="152.7,9.5 152.5,10.2 274,80.5 				"/>
				<polygon fill="#E3F178" points="159.8,126.4 186.2,150.3 193.6,115.3 				"/>
				<polygon fill="#E3F178" points="284.1,237.4 284.2,236 283.2,236.6 				"/>
				<polygon fill="#E3F178" points="283.7,86.2 283.7,118.1 283.9,86.3 				"/>
				<polygon fill="#80F4DF" points="283.7,236.3 283.7,118.1 283.1,236.6 				"/>
				<polygon fill="#FFC12A" points="152.1,10 19.9,83.6 127.1,148.8 168.7,123.5 178.8,25.4 				"/>
				<polygon fill="#E3F178" points="204,134.7 281.2,86.6 274,80.5 152.7,9.5 154.1,105.2 159.8,126.4 193.6,115.3 				"/>
				<polygon fill="none" stroke="#000000" stroke-width="11" stroke-miterlimit="10" points="152.4,312.8 21,236.7 21.3,84.9 
					153,9.1 284.4,85.2 284.1,237 				"/>
				<polygon points="71.4,209.2 71.4,209.4 111,232.2 153,256.4 234.6,209.5 234.8,115.5 234.3,115.3 				"/>
				<polygon fill="#606060" points="153.5,68.6 72,115.6 71.7,209.2 234.5,115.4 				"/>
			</g>
		</g>
	</g>
</g>
<g id="hex_x5F_only">
	<g id="hex_1_">
		<g id="colours_copy">
		</g>
		<g id="outerhex_copy">
		</g>
		<g id="innerhex_copy">
		</g>
	</g>
</g>
</svg>
