<?xml version="1.0" encoding="utf-8"?>
<!-- Generator: Adobe Illustrator 18.0.0, SVG Export Plug-In . SVG Version: 6.00 Build 0)  -->
<!DOCTYPE svg PUBLIC "-//W3C//DTD SVG 1.1//EN" "http://www.w3.org/Graphics/SVG/1.1/DTD/svg11.dtd">
<svg version="1.1" xmlns="http://www.w3.org/2000/svg" xmlns:xlink="http://www.w3.org/1999/xlink" x="0px" y="0px"
	 viewBox="0 0 576 576" enable-background="new 0 0 576 576" xml:space="preserve">
<g id="full_x5F_logo">
	<g id="text">
	</g>
	<g id="hex">
		<g id="colours">
		</g>
		<g id="outerhex">
		</g>
		<g id="innerhex">
		</g>
	</g>
</g>
<g id="hex_x5F_only">
	<g id="hex_1_">
		<g id="colours_copy">
		</g>
		<g id="outerhex_copy">
		</g>
		<g id="innerhex_copy">
			<g>
				<polygon fill="#80F4DF" points="525.4,150 370.6,167.9 287.2,560.1 524.5,423.9 				"/>
				<polygon fill="#6C0530" points="528.9,426.1 367.6,336.5 48.8,426.6 285.6,563.6 				"/>
				<polygon fill="#921516" points="287.3,566.5 290.4,381.2 56,146.3 49.5,419.9 				"/>
				<polygon fill="#D64E01" points="54.1,422.1 192.8,348.3 288.8,15.3 51.4,151.2 				"/>
				<polygon fill="#E3F178" points="288.6,14.9 288.1,16 507.3,142.8 				"/>
				<polygon fill="#E3F178" points="301.3,225.5 349,268.7 362.2,205.6 				"/>
				<polygon fill="#E3F178" points="525.5,425.7 525.5,423.1 523.7,424.1 				"/>
				<polygon fill="#E3F178" points="524.8,153 524.8,210.6 525.1,153.2 				"/>
				<polygon fill="#80F4DF" points="524.7,423.6 524.8,210.6 523.7,424.2 				"/>
				<polygon fill="#FFC12A" points="287.5,15.7 49.1,148.3 242.4,265.9 317.3,220.3 335.5,43.5 				"/>
				<polygon fill="#E3F178" points="381.1,240.5 520.2,153.8 507.3,142.8 288.5,14.8 291,187.3 301.3,225.5 362.2,205.6 				"/>
				<polygon fill="none" stroke="#000000" stroke-width="11" stroke-miterlimit="10" points="288.1,561.6 51.2,424.4 51.7,150.7 
					289.1,14.1 526,151.2 525.5,424.9 				"/>
				<polygon points="142.5,374.8 142.5,375.2 213.7,416.3 289.2,460 436.2,375.4 436.6,206 435.9,205.6 				"/>
				<polygon fill="#606060" points="290.1,121.4 143,206 142.6,374.9 436,205.7 				"/>
			</g>
		</g>
	</g>
</g>
</svg>
