<?xml version="1.0" encoding="utf-8"?>
<!-- Generator: Adobe Illustrator 18.0.0, SVG Export Plug-In . SVG Version: 6.00 Build 0)  -->
<!DOCTYPE svg PUBLIC "-//W3C//DTD SVG 1.1//EN" "http://www.w3.org/Graphics/SVG/1.1/DTD/svg11.dtd">
<svg version="1.1" xmlns="http://www.w3.org/2000/svg" xmlns:xlink="http://www.w3.org/1999/xlink" x="0px" y="0px"
	 viewBox="0 0 1440.4 231" enable-background="new 0 0 1440.4 231" xml:space="preserve">
<g id="full_x5F_logo">
	<g id="text">
		<g>
			<g>
				<path d="M278.4,158.5l39.9-7.7c0,4,0.1,7.5,0.2,10.5c0.1,3,0.5,6.3,1.1,9.9c0.6,3.6,1.4,6.5,2.5,8.8c1,2.3,2.5,4.2,4.4,5.7
					c1.9,1.5,4.2,2.3,6.8,2.3c7.8,0,11.7-5,11.7-14.9c0-13.6-7.7-27.2-23-40.6l-12.2-10.4c-3.9-3.2-7-5.9-9.3-8.1
					c-2.3-2.2-5-5.1-8.2-8.8c-3.1-3.7-5.6-7.2-7.3-10.6c-1.8-3.4-3.3-7.5-4.5-12.4c-1.3-4.8-1.9-9.9-1.9-15.3c0-15.8,5-28.3,15-37.4
					c10-9.2,23.3-13.8,39.9-13.8c13.8,0,25.5,4.9,35.1,14.7C378.2,40.2,383,52,383,65.8l-0.1,1.4c0,0.9,0,2,0,3.2l-40.6,5.6
					c0-0.8,0.1-2,0.2-3.7c0.1-1.7,0.2-3.1,0.2-4.2c0-2.6-0.2-5.1-0.5-7.5c-0.4-2.4-1-4.8-1.8-7.1c-0.8-2.4-2.1-4.3-3.8-5.7
					c-1.7-1.4-3.8-2.1-6.3-2.1c-4.3,0-7.6,1.7-9.7,5.1c-2.2,3.4-3.2,7.4-3.2,12c0,4,0.6,7.8,1.9,11.3c1.3,3.5,3.2,6.8,5.7,9.9
					c2.6,3.1,4.9,5.6,7.1,7.6c2.2,2,5,4.5,8.6,7.4c3.6,2.9,6.2,5.1,7.7,6.4c5.5,4.9,10.2,9.5,14,13.8c3.8,4.3,7.4,9.1,10.8,14.5
					c3.4,5.4,5.9,11.2,7.6,17.5c1.7,6.3,2.5,13,2.5,20.3c0,13.6-4.9,24.8-14.6,33.4c-9.7,8.7-21.5,13-35.4,13c-9,0-17-1.7-24-5
					c-7-3.3-12.6-7.8-16.9-13.5c-4.3-5.7-7.6-12-9.9-18.9C280.1,173.8,278.8,166.4,278.4,158.5z"/>
				<path d="M398.9,214.2V19.7h39.3v167.5h38.7v27H398.9z"/>
				<path d="M489.5,214.2V19.7h39.3v194.5H489.5z"/>
				<path d="M551.9,214.2V19.7h40.6c13,0,23.6,1.2,32,3.5c8.4,2.3,15,6.2,19.8,11.6c4.8,5.4,8.1,11.8,9.9,19.3
					c1.8,7.5,2.8,17,2.8,28.6v63.7c0,6.9-0.2,12.9-0.6,18.1c-0.4,5.2-1.2,10.2-2.4,15.1c-1.2,4.9-2.8,9.1-4.9,12.5
					c-2.1,3.4-4.7,6.6-7.9,9.6c-3.2,3-7.1,5.3-11.7,7c-4.6,1.7-9.9,3.1-16.1,4c-6.2,0.9-13.2,1.4-21.2,1.4H551.9z M592.8,186.6
					c3.7,0,6.7-0.1,8.9-0.2s4.3-0.4,6.5-0.8c2.2-0.4,3.7-1,4.8-1.8c1-0.8,1.9-1.9,2.8-3.3c0.9-1.4,1.4-3.2,1.7-5.1
					c0.3-2,0.4-4.4,0.4-7.4V63.3c0-6.4-1.9-10.7-5.7-12.8c-3.8-2.1-10.2-3.2-19.2-3.2V186.6z"/>
				<path d="M677.7,214.2V19.7h81.1v27H717v52.9h29.6v27.7H717v59.9h41.8v27H677.7z"/>
				<path d="M796.5,214.2l-32.6-195H780l26.6,166.8l25.1-166.8h21.9l23,166.8l26.5-166.8h16l-32.4,195h-19.8L842.5,42l-26.3,172.2
					H796.5z"/>
				<path d="M938.1,214.2v-195h17.2v195H938.1z"/>
				<path d="M988.6,214.2v-195h13.3l61.7,154.4V19.2h14.6v195h-12.9L1003.4,63v151.1H988.6z"/>
				<path d="M1111.2,214.2v-195h43.8c7.4,0,14,1,19.7,3c5.7,2,10.5,4.7,14.2,8.2c3.7,3.4,6.8,7.6,9.2,12.6s4.1,10.3,5.1,15.9
					c1,5.6,1.5,11.7,1.5,18.5v79.3c0,38.4-16.6,57.5-49.7,57.5H1111.2z M1128.5,200.3h26.6c21.7,0,32.5-13.3,32.5-39.9v-87
					c0-27-10.8-40.4-32.5-40.4h-26.6V200.3z"/>
				<path d="M1234.3,214.2v-195h68V33h-50.8v73.9h36.2v13h-36.2v80.4h50.8v13.8H1234.3z"/>
				<path d="M1324.3,214.2v-195h52c6.6,0,12.3,0.9,17.3,2.7s9,4.2,12.1,7.2c3.1,3,5.5,6.7,7.4,11.1c1.9,4.4,3.2,9,3.9,13.7
					c0.7,4.7,1.1,10,1.1,15.7c0,24.8-9.1,40.6-27.2,47.2l30.1,97.3h-18.4l-28.4-95.2h-32.7v95.2H1324.3z M1341.5,105.2h34.7
					c4.9,0,9.1-1,12.5-2.9c3.4-2,5.9-4.8,7.6-8.4s2.9-7.4,3.6-11.3c0.7-3.9,1-8.4,1-13.5c0-4.2-0.2-7.9-0.6-11.2
					c-0.4-3.3-1.2-6.6-2.3-9.7c-1.1-3.2-2.5-5.8-4.4-8s-4.2-3.9-7.1-5.2c-2.9-1.3-6.4-1.9-10.3-1.9h-34.7V105.2z"/>
			</g>
		</g>
	</g>
	<g id="hex">
		<g id="colours">
			<polygon fill="#80F4DF" points="260.5,115 194.1,86.4 69.9,224.8 196.8,225 			"/>
			<polygon fill="#6C0530" points="198,226.9 153.9,153.5 4.9,116 68.4,225.9 			"/>
			<polygon fill="#921516" points="68.4,227.4 112.5,153.6 72.6,5 6.7,113.4 			"/>
			<polygon fill="#D64E01" points="8.1,115.4 80.9,117.8 196.6,6.1 69.6,5.9 			"/>
			<polygon fill="#E3F178" points="196.6,5.9 196.1,6.3 254.9,108 			"/>
			<polygon fill="#E3F178" points="153,93.6 162.1,121.9 182,99.7 			"/>
			<polygon fill="#E3F178" points="196.8,225.9 197.4,224.9 196.4,224.9 			"/>
			<polygon fill="#E3F178" points="259.6,116.1 246.2,139.2 259.6,116.3 			"/>
			<polygon fill="#80F4DF" points="196.9,225 246.2,139.4 196.4,225 			"/>
			<polygon fill="#FFC12A" points="195.9,6 69.4,4.2 119.9,96.2 160.6,95.2 208.8,28.3 			"/>
			<polygon fill="#E3F178" points="181.5,118.1 257.5,115.4 254.9,108 196.5,5.9 157.7,75.8 153,93.6 182,99.7 			"/>
		</g>
		<g id="outerhex">
			<polygon fill="none" stroke="#000000" stroke-width="11" stroke-miterlimit="10" points="69.9,225.5 6.4,115.5 69.9,5.5 
				196.9,5.5 260.5,115.5 196.9,225.5 			"/>
		</g>
		<g id="innerhex">
			<polygon points="54.6,116.8 54.5,117 73.6,150 93.8,185 172.5,185 211.9,117 211.7,116.7 			"/>
			<polygon fill="#606060" points="172.5,49 93.8,49 54.6,116.8 211.7,116.7 			"/>
		</g>
	</g>
</g>
<g id="hex_x5F_only">
	<g id="hex_1_">
		<g id="colours_copy">
		</g>
		<g id="outerhex_copy">
		</g>
		<g id="innerhex_copy">
		</g>
	</g>
</g>
</svg>
